<?xml version="1.0" encoding="UTF-8" standalone="no"?>
<!DOCTYPE svg PUBLIC "-//W3C//DTD SVG 1.1//EN" "http://www.w3.org/Graphics/SVG/1.1/DTD/svg11.dtd">
<!-- Generated by graphviz version 2.40.1 (20161225.0304)
 -->
<!-- Title: TD Pages: 1 -->
<svg xmlns="http://www.w3.org/2000/svg" xmlns:xlink="http://www.w3.org/1999/xlink" width="616pt" height="595pt" viewBox="0.00 0.00 616.25 594.90">
  <g id="graph0" class="graph" transform="scale(1 1) rotate(0) translate(4 590.9)">
    <title>TD</title>
    <g id="a_graph0">
      <a xlink:title="Click the boxes for further information">
        <polygon fill="#ffffff" stroke="transparent" points="-4,4 -4,-590.9 612.2461,-590.9 612.2461,4 -4,4"/>
      </a>
    </g>
    <!-- 3&#45;&gt;4 -->
    <!-- 3&#45;&gt;5 -->
    <!-- 4&#45;&gt;5 -->
    <g id="edge3" class="edge">
      <title>4-&gt;5</title>
      <path fill="none" stroke="#000000" d="M302.821,-477C305.3998,-477 307.9862,-477 310.577,-477"/>
      <polygon fill="#000000" stroke="#000000" points="310.5841,-480.5001 320.584,-477 310.584,-473.5001 310.5841,-480.5001"/>
    </g>
    <!-- 4&#45;&gt;6 -->
    <g id="edge4" class="edge">
      <title>4-&gt;6</title>
      <path fill="none" stroke="#000000" d="M176.5,-447.707C176.5,-425.6149 176.5,-395.3812 176.5,-372.9056"/>
      <polygon fill="#000000" stroke="#000000" points="180.0001,-372.874 176.5,-362.874 173.0001,-372.8741 180.0001,-372.874"/>
    </g>
    <!-- 5&#45;&gt;7 -->
    <!-- 6&#45;&gt;7 -->
    <g id="edge5" class="edge">
      <title>6-&gt;7</title>
      <path fill="none" stroke="#000000" d="M302.821,-342C311.202,-342 319.6641,-342 328.0915,-342"/>
      <polygon fill="#000000" stroke="#000000" points="328.346,-345.5001 338.346,-342 328.3459,-338.5001 328.346,-345.5001"/>
    </g>
    <!-- 6&#45;&gt;8 -->
    <g id="edge6" class="edge">
      <title>6-&gt;8</title>
      <path fill="none" stroke="#000000" d="M176.5,-321.1746C176.5,-314.9604 176.5,-308.0078 176.5,-301.2791"/>
      <polygon fill="#000000" stroke="#000000" points="180.0001,-301.028 176.5,-291.028 173.0001,-301.0281 180.0001,-301.028"/>
    </g>
    <!-- 7&#45;&gt;9 -->
    <!-- 8&#45;&gt;9 -->
    <g id="edge7" class="edge">
      <title>8-&gt;9</title>
      <path fill="none" stroke="#000000" d="M302.821,-270C311.202,-270 319.6641,-270 328.0915,-270"/>
      <polygon fill="#000000" stroke="#000000" points="328.346,-273.5001 338.346,-270 328.3459,-266.5001 328.346,-273.5001"/>
    </g>
    <!-- 8&#45;&gt;10 -->
    <g id="edge8" class="edge">
      <title>8-&gt;10</title>
      <path fill="none" stroke="#000000" d="M176.5,-249.1405C176.5,-240.2592 176.5,-229.7154 176.5,-219.9557"/>
      <polygon fill="#000000" stroke="#000000" points="180.0001,-219.7888 176.5,-209.7888 173.0001,-219.7889 180.0001,-219.7888"/>
    </g>
    <!-- 9&#45;&gt;11 -->
    <!-- 10&#45;&gt;12 -->
    <g id="edge10" class="edge">
      <title>10-&gt;12</title>
      <path fill="none" stroke="#000000" d="M176.5,-168.2021C176.5,-150.5639 176.5,-124.5809 176.5,-101.8532"/>
      <polygon fill="#000000" stroke="#000000" points="180.0001,-101.6814 176.5,-91.6814 173.0001,-101.6815 180.0001,-101.6814"/>
    </g>
    <!-- 10&#45;&gt;C -->
    <g id="edge9" class="edge">
      <title>10-&gt;C</title>
      <path fill="none" stroke="#000000" d="M302.821,-189C311.202,-189 319.6641,-189 328.0915,-189"/>
      <polygon fill="#000000" stroke="#000000" points="328.346,-192.5001 338.346,-189 328.3459,-185.5001 328.346,-192.5001"/>
    </g>
    <!-- identification -->
    <g id="node1" class="node">
      <title>identification</title>
      <g id="a_node1">
        <a xlink:title="Blue identification box">
          <path fill="#bcd2ee" stroke="#bcd2ee" d="M19.3333,-522C19.3333,-522 9.6667,-522 9.6667,-522 4.8333,-522 0,-517.1667 0,-512.3333 0,-512.3333 0,-441.6667 0,-441.6667 0,-436.8333 4.8333,-432 9.6667,-432 9.6667,-432 19.3333,-432 19.3333,-432 24.1667,-432 29,-436.8333 29,-441.6667 29,-441.6667 29,-512.3333 29,-512.3333 29,-517.1667 24.1667,-522 19.3333,-522"/>
          <text text-anchor="middle" x="472.8" y="16.5" font-family="Helvetica,sans-Serif" font-size="14.00" fill="#000000" transform="rotate(-90)">Identification</text>
        </a>
      </g>
    </g>
    <!-- screening -->
    <g id="node2" class="node">
      <title>screening</title>
      <g id="a_node2">
        <a xlink:title="Blue screening box">
          <path fill="#bcd2ee" stroke="#bcd2ee" d="M19.3333,-384C19.3333,-384 9.6667,-384 9.6667,-384 4.8333,-384 0,-379.1667 0,-374.3333 0,-374.3333 0,-159.6667 0,-159.6667 0,-154.8333 4.8333,-150 9.6667,-150 9.6667,-150 19.3333,-150 19.3333,-150 24.1667,-150 29,-154.8333 29,-159.6667 29,-159.6667 29,-374.3333 29,-374.3333 29,-379.1667 24.1667,-384 19.3333,-384"/>
          <text text-anchor="middle" x="262.8" y="16.5" font-family="Helvetica,sans-Serif" font-size="14.00" fill="#000000" transform="rotate(-90)">Screening</text>
        </a>
      </g>
    </g>
    <!-- included -->
    <g id="node3" class="node">
      <title>included</title>
      <g id="a_node3">
        <a xlink:title="Blue included box">
          <path fill="#bcd2ee" stroke="#bcd2ee" d="M19.3333,-108C19.3333,-108 9.6667,-108 9.6667,-108 4.8333,-108 0,-103.1667 0,-98.3333 0,-98.3333 0,-9.6667 0,-9.6667 0,-4.8333 4.8333,0 9.6667,0 9.6667,0 19.3333,0 19.3333,0 24.1667,0 29,-4.8333 29,-9.6667 29,-9.6667 29,-98.3333 29,-98.3333 29,-103.1667 24.1667,-108 19.3333,-108"/>
          <text text-anchor="middle" x="49.8" y="16.5" font-family="Helvetica,sans-Serif" font-size="14.00" fill="#000000" transform="rotate(-90)">Included</text>
        </a>
      </g>
    </g>
    <!-- 3 -->
    <g id="node4" class="node">
      <title>3</title>
      <g id="a_node4">
        <a xlink:title="Yellow title box; Identification of new studies via databases and registers">
          <path fill="#ffc125" stroke="#ffc125" d="M580.8333,-586.9C580.8333,-586.9 60.1667,-586.9 60.1667,-586.9 55.3333,-586.9 50.5,-582.0667 50.5,-577.2333 50.5,-577.2333 50.5,-567.5667 50.5,-567.5667 50.5,-562.7333 55.3333,-557.9 60.1667,-557.9 60.1667,-557.9 580.8333,-557.9 580.8333,-557.9 585.6667,-557.9 590.5,-562.7333 590.5,-567.5667 590.5,-567.5667 590.5,-577.2333 590.5,-577.2333 590.5,-582.0667 585.6667,-586.9 580.8333,-586.9"/>
          <text text-anchor="middle" x="320.5" y="-568.2" font-family="Helvetica,sans-Serif" font-size="14.00" fill="#000000">Identification of new studies via databases and registers</text>
        </a>
      </g>
    </g>
    <!-- 4 -->
    <g id="node5" class="node">
      <title>4</title>
      <g id="a_node5">
        <a xlink:title="Records identified from: Databases and Registers">
          <polygon fill="none" stroke="#000000" points="302.5,-506.4014 50.5,-506.4014 50.5,-447.5986 302.5,-447.5986 302.5,-506.4014"/>
          <text text-anchor="middle" x="176.5" y="-489.6" font-family="Helvetica,sans-Serif" font-size="14.00" fill="#000000">Records identified from:</text>
          <text text-anchor="middle" x="176.5" y="-472.8" font-family="Helvetica,sans-Serif" font-size="14.00" fill="#000000">Databases (n = 1)</text>
          <text text-anchor="middle" x="176.5" y="-456" font-family="Helvetica,sans-Serif" font-size="14.00" fill="#000000">Registers (n = 2)</text>
        </a>
      </g>
    </g>
    <!-- 5 -->
    <g id="node6" class="node">
      <title>5</title>
      <g id="a_node6">
        <a xlink:title="Duplicate records">
          <polygon fill="none" stroke="#000000" points="608.4926,-523 320.5074,-523 320.5074,-431 608.4926,-431 608.4926,-523"/>
          <text text-anchor="middle" x="464.5" y="-506.4" font-family="Helvetica,sans-Serif" font-size="14.00" fill="#000000">Records removed before screening:</text>
          <text text-anchor="middle" x="464.5" y="-489.6" font-family="Helvetica,sans-Serif" font-size="14.00" fill="#000000">Duplicate records (n = 3)</text>
          <text text-anchor="middle" x="464.5" y="-472.8" font-family="Helvetica,sans-Serif" font-size="14.00" fill="#000000">Records marked as ineligible by automation</text>
          <text text-anchor="middle" x="464.5" y="-456" font-family="Helvetica,sans-Serif" font-size="14.00" fill="#000000">tools (n = 4)</text>
          <text text-anchor="middle" x="464.5" y="-439.2" font-family="Helvetica,sans-Serif" font-size="14.00" fill="#000000">Records removed for other reasons (n = 5)</text>
        </a>
      </g>
    </g>
    <!-- 6 -->
    <g id="node7" class="node">
      <title>6</title>
      <g id="a_node7">
        <a xlink:title="Records screened (databases and registers)">
          <polygon fill="none" stroke="#000000" points="302.5,-362.6019 50.5,-362.6019 50.5,-321.3981 302.5,-321.3981 302.5,-362.6019"/>
          <text text-anchor="middle" x="176.5" y="-346.2" font-family="Helvetica,sans-Serif" font-size="14.00" fill="#000000">Records screened</text>
          <text text-anchor="middle" x="176.5" y="-329.4" font-family="Helvetica,sans-Serif" font-size="14.00" fill="#000000">(n = 6)</text>
        </a>
      </g>
    </g>
    <!-- 7 -->
    <g id="node8" class="node">
      <title>7</title>
      <g id="a_node8">
        <a xlink:title="Records excluded (databases and registers)">
          <polygon fill="none" stroke="#000000" points="590.5,-362.6019 338.5,-362.6019 338.5,-321.3981 590.5,-321.3981 590.5,-362.6019"/>
          <text text-anchor="middle" x="464.5" y="-346.2" font-family="Helvetica,sans-Serif" font-size="14.00" fill="#000000">Records excluded</text>
          <text text-anchor="middle" x="464.5" y="-329.4" font-family="Helvetica,sans-Serif" font-size="14.00" fill="#000000">(n = 7)</text>
        </a>
      </g>
    </g>
    <!-- 8 -->
    <g id="node9" class="node">
      <title>8</title>
      <g id="a_node9">
        <a xlink:title="Reports sought for retrieval (databases and registers)">
          <polygon fill="none" stroke="#000000" points="302.5,-290.6019 50.5,-290.6019 50.5,-249.3981 302.5,-249.3981 302.5,-290.6019"/>
          <text text-anchor="middle" x="176.5" y="-274.2" font-family="Helvetica,sans-Serif" font-size="14.00" fill="#000000">Reports sought for retrieval</text>
          <text text-anchor="middle" x="176.5" y="-257.4" font-family="Helvetica,sans-Serif" font-size="14.00" fill="#000000">(n = 8)</text>
        </a>
      </g>
    </g>
    <!-- 9 -->
    <g id="node10" class="node">
      <title>9</title>
      <g id="a_node10">
        <a xlink:title="Reports not retrieved (databases and registers)">
          <polygon fill="none" stroke="#000000" points="590.5,-290.6019 338.5,-290.6019 338.5,-249.3981 590.5,-249.3981 590.5,-290.6019"/>
          <text text-anchor="middle" x="464.5" y="-274.2" font-family="Helvetica,sans-Serif" font-size="14.00" fill="#000000">Reports not retrieved</text>
          <text text-anchor="middle" x="464.5" y="-257.4" font-family="Helvetica,sans-Serif" font-size="14.00" fill="#000000">(n = 9)</text>
        </a>
      </g>
    </g>
    <!-- 10 -->
    <g id="node11" class="node">
      <title>10</title>
      <g id="a_node11">
        <a xlink:title="Reports assessed for eligibility (databases and registers)">
          <polygon fill="none" stroke="#000000" points="302.5,-209.6019 50.5,-209.6019 50.5,-168.3981 302.5,-168.3981 302.5,-209.6019"/>
          <text text-anchor="middle" x="176.5" y="-193.2" font-family="Helvetica,sans-Serif" font-size="14.00" fill="#000000">Reports assessed for eligibility</text>
          <text text-anchor="middle" x="176.5" y="-176.4" font-family="Helvetica,sans-Serif" font-size="14.00" fill="#000000">(n = 10)</text>
        </a>
      </g>
    </g>
    <!-- 11 -->
    <g id="node12" class="node">
      <title>11</title>
      <g id="a_node12">
        <a xlink:title="Reports excluded (databases and registers)">
          <polygon fill="#ffffff" stroke="#000000" points="590.5,-218.4014 338.5,-218.4014 338.5,-159.5986 590.5,-159.5986 590.5,-218.4014"/>
          <text text-anchor="middle" x="464.5" y="-201.6" font-family="Helvetica,sans-Serif" font-size="14.00" fill="#000000">Reports excluded:</text>
          <text text-anchor="middle" x="464.5" y="-184.8" font-family="Helvetica,sans-Serif" font-size="14.00" fill="#000000">stoopid (n = 500)</text>
          <text text-anchor="middle" x="464.5" y="-168" font-family="Helvetica,sans-Serif" font-size="14.00" fill="#000000">boring (n = 600)</text>
        </a>
      </g>
    </g>
    <!-- 12 -->
    <g id="node13" class="node">
      <title>12</title>
      <g id="a_node13">
        <a xlink:title="New studies included in review">
          <polygon fill="none" stroke="#000000" points="302.5,-91.7003 50.5,-91.7003 50.5,-16.2997 302.5,-16.2997 302.5,-91.7003"/>
          <text text-anchor="middle" x="176.5" y="-75" font-family="Helvetica,sans-Serif" font-size="14.00" fill="#000000">New studies included in review</text>
          <text text-anchor="middle" x="176.5" y="-58.2" font-family="Helvetica,sans-Serif" font-size="14.00" fill="#000000">(n = 11)</text>
          <text text-anchor="middle" x="176.5" y="-41.4" font-family="Helvetica,sans-Serif" font-size="14.00" fill="#000000">Reports of new included studies</text>
          <text text-anchor="middle" x="176.5" y="-24.6" font-family="Helvetica,sans-Serif" font-size="14.00" fill="#000000">(n = 12)</text>
        </a>
      </g>
    </g>
    <!-- C -->
  </g>
</svg>
