<svg version="1.1" xmlns="http://www.w3.org/2000/svg" viewBox="0 0 766.1249389648438 427.68000793457037" width="2298.3748168945312" height="1283.0400238037112">
  <!-- svg-source:excalidraw -->
  
  <defs>
    <style class="style-fonts">
      @font-face {
        font-family: "Virgil";
        src: url("https://unpkg.com/@excalidraw/excalidraw@undefined/dist/excalidraw-assets/Virgil.woff2");
      }
      @font-face {
        font-family: "Cascadia";
        src: url("https://unpkg.com/@excalidraw/excalidraw@undefined/dist/excalidraw-assets/Cascadia.woff2");
      }
      @font-face {
        font-family: "Assistant";
        src: url("https://unpkg.com/@excalidraw/excalidraw@undefined/dist/excalidraw-assets/Assistant-Regular.woff2");
      }
    </style>
    
  </defs>
  <rect x="0" y="0" width="766.1249389648438" height="427.68000793457037" fill="#ffffff"></rect><g stroke-linecap="round" transform="translate(54.914947509765625 82.979965209961) rotate(0 60.28000259399414 57.76000213623047)"><path d="M0 0 L120.56 0 L120.56 115.52 L0 115.52" stroke="none" stroke-width="0" fill="#b2f2bb"></path><path d="M0 0 C24.97 0, 49.93 0, 120.56 0 M0 0 C38.25 0, 76.5 0, 120.56 0 M120.56 0 C120.56 42.08, 120.56 84.16, 120.56 115.52 M120.56 0 C120.56 39.14, 120.56 78.29, 120.56 115.52 M120.56 115.52 C84.61 115.52, 48.66 115.52, 0 115.52 M120.56 115.52 C94.74 115.52, 68.92 115.52, 0 115.52 M0 115.52 C0 90.63, 0 65.75, 0 0 M0 115.52 C0 90.07, 0 64.61, 0 0" stroke="#1e1e1e" stroke-width="2" fill="none"></path></g><g stroke-linecap="round" transform="translate(316.35489654541016 208.61996459960943) rotate(0 88.32499694824219 20)"><path d="M0 0 L176.65 0 L176.65 40 L0 40" stroke="none" stroke-width="0" fill="#b2f2bb"></path><path d="M0 0 C56.09 0, 112.18 0, 176.65 0 M0 0 C43.58 0, 87.17 0, 176.65 0 M176.65 0 C176.65 13.21, 176.65 26.41, 176.65 40 M176.65 0 C176.65 10.3, 176.65 20.6, 176.65 40 M176.65 40 C121.97 40, 67.3 40, 0 40 M176.65 40 C140.49 40, 104.33 40, 0 40 M0 40 C0 25.83, 0 11.65, 0 0 M0 40 C0 24.07, 0 8.14, 0 0" stroke="#1e1e1e" stroke-width="2" fill="none"></path></g><g stroke-linecap="round" transform="translate(62.044960021972656 305.4599914550782) rotate(0 58.27000427246094 55)"><path d="M0 0 L116.54 0 L116.54 110 L0 110" stroke="none" stroke-width="0" fill="#b2f2bb"></path><path d="M0 0 C28.43 0, 56.85 0, 116.54 0 M0 0 C41.67 0, 83.33 0, 116.54 0 M116.54 0 C116.54 23.77, 116.54 47.55, 116.54 110 M116.54 0 C116.54 41.19, 116.54 82.38, 116.54 110 M116.54 110 C73.96 110, 31.37 110, 0 110 M116.54 110 C85.64 110, 54.73 110, 0 110 M0 110 C0 73.41, 0 36.83, 0 0 M0 110 C0 74.53, 0 39.07, 0 0" stroke="#1e1e1e" stroke-width="2" fill="none"></path></g><g stroke-linecap="round" transform="translate(615.9649124145508 196.0199584960938) rotate(0 70.08001327514648 30)"><path d="M0 0 L140.16 0 L140.16 60 L0 60" stroke="none" stroke-width="0" fill="#b2f2bb"></path><path d="M0 0 C38.18 0, 76.35 0, 140.16 0 M0 0 C41.88 0, 83.76 0, 140.16 0 M140.16 0 C140.16 16.53, 140.16 33.06, 140.16 60 M140.16 0 C140.16 17.8, 140.16 35.6, 140.16 60 M140.16 60 C107.04 60, 73.92 60, 0 60 M140.16 60 C110.68 60, 81.2 60, 0 60 M0 60 C0 36.73, 0 13.46, 0 0 M0 60 C0 44.08, 0 28.16, 0 0" stroke="#1e1e1e" stroke-width="2" fill="none"></path></g><g stroke-linecap="round" transform="translate(413.2399673461914 44.53995513916021) rotate(0 74.63999938964844 42.5)"><path d="M21.25 0 C56.33 0, 91.41 0, 128.03 0 C142.2 0, 149.28 7.08, 149.28 21.25 C149.28 30.73, 149.28 40.22, 149.28 63.75 C149.28 77.92, 142.2 85, 128.03 85 C92.19 85, 56.36 85, 21.25 85 C7.08 85, 0 77.92, 0 63.75 C0 52.56, 0 41.37, 0 21.25 C0 7.08, 7.08 0, 21.25 0" stroke="none" stroke-width="0" fill="#b2f2bb"></path><path d="M21.25 0 C46.26 0, 71.28 0, 128.03 0 M21.25 0 C47.87 0, 74.48 0, 128.03 0 M128.03 0 C142.2 0, 149.28 7.08, 149.28 21.25 M128.03 0 C142.2 0, 149.28 7.08, 149.28 21.25 M149.28 21.25 C149.28 34.4, 149.28 47.56, 149.28 63.75 M149.28 21.25 C149.28 29.95, 149.28 38.65, 149.28 63.75 M149.28 63.75 C149.28 77.92, 142.2 85, 128.03 85 M149.28 63.75 C149.28 77.92, 142.2 85, 128.03 85 M128.03 85 C95.3 85, 62.57 85, 21.25 85 M128.03 85 C101.76 85, 75.48 85, 21.25 85 M21.25 85 C7.08 85, 0 77.92, 0 63.75 M21.25 85 C7.08 85, 0 77.92, 0 63.75 M0 63.75 C0 50.54, 0 37.33, 0 21.25 M0 63.75 C0 52.88, 0 42.01, 0 21.25 M0 21.25 C0 7.08, 7.08 0, 21.25 0 M0 21.25 C0 7.08, 7.08 0, 21.25 0" stroke="#1e1e1e" stroke-width="2" fill="none"></path></g><g stroke-linecap="round"><g transform="translate(176.69836604667807 181.73233222369976) rotate(0 68.37607520999427 18.290627165039552)"><path d="M0 0 C22.79 6.1, 113.96 30.48, 136.75 36.58 M0 0 C22.79 6.1, 113.96 30.48, 136.75 36.58" stroke="#1e1e1e" stroke-width="2" fill="none"></path></g><g transform="translate(176.69836604667807 181.73233222369976) rotate(0 68.37607520999427 18.290627165039552)"><path d="M106.87 39.21 C114.53 38.54, 122.19 37.86, 136.75 36.58 M106.87 39.21 C117.85 38.24, 128.83 37.28, 136.75 36.58" stroke="#1e1e1e" stroke-width="2" fill="none"></path></g><g transform="translate(176.69836604667807 181.73233222369976) rotate(0 68.37607520999427 18.290627165039552)"><path d="M112.17 19.38 C118.47 23.79, 124.77 28.2, 136.75 36.58 M112.17 19.38 C121.2 25.7, 130.23 32.02, 136.75 36.58" stroke="#1e1e1e" stroke-width="2" fill="none"></path></g></g><mask></mask><g stroke-linecap="round"><g transform="translate(118.40663812748738 304.4599914550782) rotate(0 97.57139355845007 -35.6870791248771)"><path d="M0 0 C32.52 -11.9, 162.62 -59.48, 195.14 -71.37 M0 0 C32.52 -11.9, 162.62 -59.48, 195.14 -71.37" stroke="#1e1e1e" stroke-width="2" fill="none"></path></g><g transform="translate(118.40663812748738 304.4599914550782) rotate(0 97.57139355845007 -35.6870791248771)"><path d="M172.19 -52.05 C179.32 -58.05, 186.45 -64.05, 195.14 -71.37 M172.19 -52.05 C177.73 -56.72, 183.27 -61.38, 195.14 -71.37" stroke="#1e1e1e" stroke-width="2" fill="none"></path></g><g transform="translate(118.40663812748738 304.4599914550782) rotate(0 97.57139355845007 -35.6870791248771)"><path d="M165.14 -71.33 C174.46 -71.34, 183.77 -71.36, 195.14 -71.37 M165.14 -71.33 C172.38 -71.34, 179.62 -71.35, 195.14 -71.37" stroke="#1e1e1e" stroke-width="2" fill="none"></path></g></g><mask></mask><g stroke-linecap="round"><g transform="translate(494.00489044189453 217.40073166075712) rotate(0 60.480010986328125 0.8955988978547396)"><path d="M0 0 C20.16 0.3, 100.8 1.49, 120.96 1.79 M0 0 C20.16 0.3, 100.8 1.49, 120.96 1.79" stroke="#1e1e1e" stroke-width="2" fill="none"></path></g><g transform="translate(494.00489044189453 217.40073166075712) rotate(0 60.480010986328125 0.8955988978547396)"><path d="M92.62 11.63 C102.94 8.05, 113.27 4.46, 120.96 1.79 M92.62 11.63 C102.22 8.3, 111.83 4.96, 120.96 1.79" stroke="#1e1e1e" stroke-width="2" fill="none"></path></g><g transform="translate(494.00489044189453 217.40073166075712) rotate(0 60.480010986328125 0.8955988978547396)"><path d="M92.92 -8.89 C103.14 -5, 113.35 -1.11, 120.96 1.79 M92.92 -8.89 C102.42 -5.27, 111.92 -1.65, 120.96 1.79" stroke="#1e1e1e" stroke-width="2" fill="none"></path></g></g><mask></mask><g stroke-linecap="round"><g transform="translate(564.3612170531612 214.0047550632804) rotate(178.86591546670226 -10.934069015498494 -39.39127837248152)"><path d="M0 0 C-3.42 -3.63, -16.9 -8.63, -20.54 -21.76 C-24.19 -34.89, -21.65 -69.28, -21.87 -78.78 M0 0 C-3.42 -3.63, -16.9 -8.63, -20.54 -21.76 C-24.19 -34.89, -21.65 -69.28, -21.87 -78.78" stroke="#1e1e1e" stroke-width="2" fill="none"></path></g><g transform="translate(564.3612170531612 214.0047550632804) rotate(178.86591546670226 -10.934069015498494 -39.39127837248152)"><path d="M-12.7 -51.78 C-15.73 -60.69, -18.75 -69.61, -21.87 -78.78 M-12.7 -51.78 C-15.06 -58.73, -17.42 -65.69, -21.87 -78.78" stroke="#1e1e1e" stroke-width="2" fill="none"></path></g><g transform="translate(564.3612170531612 214.0047550632804) rotate(178.86591546670226 -10.934069015498494 -39.39127837248152)"><path d="M-32.2 -52.2 C-28.79 -60.98, -25.38 -69.75, -21.87 -78.78 M-32.2 -52.2 C-29.54 -59.05, -26.88 -65.89, -21.87 -78.78" stroke="#1e1e1e" stroke-width="2" fill="none"></path></g></g><mask></mask><g transform="translate(64.20499801635742 115.73996734619146) rotate(0 50.989952087402344 25)"><text x="50.989952087402344" y="0" font-family="Virgil, Segoe UI Emoji" font-size="20px" fill="#1e1e1e" text-anchor="middle" style="white-space: pre;" direction="ltr" dominant-baseline="text-before-edge">Extrinsic </text><text x="50.989952087402344" y="25" font-family="Virgil, Segoe UI Emoji" font-size="20px" fill="#1e1e1e" text-anchor="middle" style="white-space: pre;" direction="ltr" dominant-baseline="text-before-edge">Motivation</text></g><g transform="translate(328.9499740600586 216.11996459960943) rotate(0 75.72991943359375 12.5)"><text x="75.72991943359375" y="0" font-family="Virgil, Segoe UI Emoji" font-size="20px" fill="#1e1e1e" text-anchor="middle" style="white-space: pre;" direction="ltr" dominant-baseline="text-before-edge">Positive Affect</text></g><g transform="translate(69.32501220703125 335.4599914550782) rotate(0 50.989952087402344 25)"><text x="50.989952087402344" y="0" font-family="Virgil, Segoe UI Emoji" font-size="20px" fill="#1e1e1e" text-anchor="middle" style="white-space: pre;" direction="ltr" dominant-baseline="text-before-edge">Intrinsic</text><text x="50.989952087402344" y="25" font-family="Virgil, Segoe UI Emoji" font-size="20px" fill="#1e1e1e" text-anchor="middle" style="white-space: pre;" direction="ltr" dominant-baseline="text-before-edge">Motivation</text></g><g transform="translate(624.1249885559082 201.0199584960938) rotate(0 61.91993713378906 25)"><text x="61.91993713378906" y="0" font-family="Virgil, Segoe UI Emoji" font-size="20px" fill="#1e1e1e" text-anchor="middle" style="white-space: pre;" direction="ltr" dominant-baseline="text-before-edge">Psychological</text><text x="61.91993713378906" y="25" font-family="Virgil, Segoe UI Emoji" font-size="20px" fill="#1e1e1e" text-anchor="middle" style="white-space: pre;" direction="ltr" dominant-baseline="text-before-edge">wellbeing</text></g><g transform="translate(420.9600296020508 62.03995513916021) rotate(0 66.91993713378906 25)"><text x="66.91993713378906" y="0" font-family="Virgil, Segoe UI Emoji" font-size="20px" fill="#1e1e1e" text-anchor="middle" style="white-space: pre;" direction="ltr" dominant-baseline="text-before-edge">Psychological </text><text x="66.91993713378906" y="25" font-family="Virgil, Segoe UI Emoji" font-size="20px" fill="#1e1e1e" text-anchor="middle" style="white-space: pre;" direction="ltr" dominant-baseline="text-before-edge">Safety</text></g><g stroke-linecap="round"><g transform="translate(412.559814453125 81.51994323730474) rotate(0 -87.99996948242188 57.76937390157619)"><path d="M0 0 C-27.09 2.24, -133.23 -5.82, -162.56 13.44 C-191.89 32.7, -173.76 98.52, -176 115.54 M0 0 C-27.09 2.24, -133.23 -5.82, -162.56 13.44 C-191.89 32.7, -173.76 98.52, -176 115.54" stroke="#1e1e1e" stroke-width="2" fill="none"></path></g><g transform="translate(412.559814453125 81.51994323730474) rotate(0 -87.99996948242188 57.76937390157619)"><path d="M-188.03 88.06 C-183.95 97.39, -179.86 106.73, -176 115.54 M-188.03 88.06 C-183.29 98.9, -178.54 109.74, -176 115.54" stroke="#1e1e1e" stroke-width="2" fill="none"></path></g><g transform="translate(412.559814453125 81.51994323730474) rotate(0 -87.99996948242188 57.76937390157619)"><path d="M-167.55 86.75 C-170.42 96.53, -173.29 106.31, -176 115.54 M-167.55 86.75 C-170.89 98.11, -174.22 109.47, -176 115.54" stroke="#1e1e1e" stroke-width="2" fill="none"></path></g></g><mask></mask><g stroke-linecap="round" transform="translate(10 10) rotate(0 106.87997436523438 203.84000396728518)"><path d="M0 0 C61.44 0, 122.87 0, 213.76 0 M213.76 0 C213.76 83.69, 213.76 167.38, 213.76 407.68 M213.76 407.68 C159.75 407.68, 105.74 407.68, 0 407.68 M0 407.68 C0 265.77, 0 123.86, 0 0" stroke="#1e1e1e" stroke-width="2.5" fill="none" stroke-dasharray="1.5 8"></path></g><g transform="translate(19.600006103515625 24.559928894043026) rotate(0 105.65596750213433 27.88001251220703)"><text x="0" y="0" font-family="Virgil, Segoe UI Emoji" font-size="22.304010009765623px" fill="#1e1e1e" text-anchor="start" style="white-space: pre;" direction="ltr" dominant-baseline="text-before-edge">Self-Determination </text><text x="0" y="27.880012512207028" font-family="Virgil, Segoe UI Emoji" font-size="22.304010009765623px" fill="#1e1e1e" text-anchor="start" style="white-space: pre;" direction="ltr" dominant-baseline="text-before-edge">Theory</text></g><g stroke-linecap="round"><g transform="translate(260.2398376464844 89.1999130249024) rotate(0 0.959991455078125 82.8800048828125)"><path d="M0 0 C0.71 61.01, 1.41 122.03, 1.92 165.76 M0 0 C0.59 50.52, 1.17 101.04, 1.92 165.76" stroke="#1e1e1e" stroke-width="2" fill="none"></path></g><g transform="translate(260.2398376464844 89.1999130249024) rotate(0 0.959991455078125 82.8800048828125)"><path d="M-8.67 137.69 C-4.77 148.02, -0.87 158.35, 1.92 165.76 M-8.67 137.69 C-5.44 146.25, -2.21 154.8, 1.92 165.76" stroke="#1e1e1e" stroke-width="2" fill="none"></path></g><g transform="translate(260.2398376464844 89.1999130249024) rotate(0 0.959991455078125 82.8800048828125)"><path d="M11.85 137.45 C8.2 147.87, 4.54 158.29, 1.92 165.76 M11.85 137.45 C8.83 146.08, 5.8 154.71, 1.92 165.76" stroke="#1e1e1e" stroke-width="2" fill="none"></path></g></g><mask></mask></svg>